<?xml version="1.0" encoding="UTF-8" standalone="no"?>
<!-- Created with Inkscape (http://www.inkscape.org/) -->

<svg
   xmlns:dc="http://purl.org/dc/elements/1.1/"
   xmlns:cc="http://creativecommons.org/ns#"
   xmlns:rdf="http://www.w3.org/1999/02/22-rdf-syntax-ns#"
   xmlns:svg="http://www.w3.org/2000/svg"
   xmlns="http://www.w3.org/2000/svg"
   version="1.1"
   width="249.99513"
   height="250"
   viewBox="0 0 249.99513 249.99999"
   id="svg2"
   xml:space="preserve"><metadata
   id="metadata53"><rdf:RDF><cc:Work
       rdf:about=""><dc:format>image/svg+xml</dc:format><dc:type
         rdf:resource="http://purl.org/dc/dcmitype/StillImage" /><dc:title></dc:title></cc:Work></rdf:RDF></metadata><defs
   id="defs51">
	
	

		
			
		
			
	
		
			
		
			
	<filter
   color-interpolation-filters="sRGB"
   id="filter3019"><feFlood
     result="flood"
     flood-color="rgb(0,0,0)"
     flood-opacity="0.5"
     id="feFlood3021" /><feComposite
     in2="SourceGraphic"
     operator="in"
     in="flood"
     result="composite1"
     id="feComposite3023" /><feGaussianBlur
     result="blur"
     stdDeviation="2"
     id="feGaussianBlur3025" /><feOffset
     result="offset"
     dy="4"
     dx="4"
     id="feOffset3027" /><feComposite
     in2="offset"
     operator="over"
     in="SourceGraphic"
     result="composite2"
     id="feComposite3029" /></filter></defs>






<g
   id="g2999"
   style="filter:url(#filter3019)"><g
     transform="matrix(0.49787104,0,0,0.49787104,-51.061915,-14.630636)"
     id="Layer_1">
	<path
   d="m 526.814,430.41 c 0.681,5.149 -3.567,9.958 -9.484,10.74 l -288.442,38.068 c -5.918,0.78 -11.266,-2.763 -11.946,-7.912 L 183.806,220.24 c -0.68,-5.152 3.566,-9.96 9.483,-10.741 l 288.443,-38.068 c 5.918,-0.781 11.267,2.761 11.946,7.913 l 33.136,251.066 z"
   id="path10"
   style="fill:#f07e2a;stroke:#e1ddda;stroke-width:4;stroke-miterlimit:10" />
</g><path
     d="m 63.510658,38.859374 c -0.290065,0.0125 -0.576883,0.0389 -0.871275,0.0778 -4.710288,0.62192 -8.088418,4.46352 -7.545858,8.57271 0.455891,3.45278 3.530409,5.99102 7.296923,6.34786 l 3.827383,29.032109 5.258763,-0.68458 -3.8585,-29.296599 c 3.038522,-1.5005 4.944407,-4.49735 4.527515,-7.65476 -0.50865,-3.85238 -4.283977,-6.58136 -8.634951,-6.39454 z"
     id="rect15"
     style="fill:#f07e2a;stroke:#e1ddda;stroke-width:1.99149299;stroke-miterlimit:10" /><path
     d="m 162.40029,25.836944 c -0.29006,0.0124 -0.57688,0.0234 -0.87127,0.0622 -4.71029,0.62145 -8.08797,4.46379 -7.54586,8.57272 0.45551,3.45254 3.5305,5.99069 7.29692,6.34785 l 3.84294,29.01655 5.25877,-0.70013 -3.87406,-29.26548 c 3.04373,-1.49868 4.94445,-4.49455 4.52751,-7.65477 -0.50822,-3.85212 -4.28402,-6.56538 -8.63495,-6.37897 z"
     id="rect21"
     style="fill:#f07e2a;stroke:#e1ddda;stroke-width:1.99149299;stroke-miterlimit:10" /><g
     transform="matrix(0.49787104,0,0,0.49787104,-51.061915,-14.630636)"
     id="Layer_5">
	<path
   d="m 192.194,347.364 c 0.718,5.442 -6.206,10.845 -15.466,12.067 l 0,0 c -9.259,1.222 -17.348,-2.2 -18.066,-7.642 l -3.845,-29.133 c -0.718,-5.441 6.206,-10.845 15.465,-12.066 l 0,0 c 9.26,-1.223 17.349,2.199 18.067,7.642 l 3.845,29.132 z"
   id="path26"
   style="fill:#f07e2a;stroke:#e1ddda;stroke-width:4;stroke-miterlimit:10" />
	<path
   d="m 552.425,300.744 c 0.719,5.442 -6.206,10.845 -15.466,12.067 l 0,0 c -9.259,1.222 -17.349,-2.198 -18.066,-7.642 l -3.845,-29.131 c -0.719,-5.443 6.207,-10.845 15.466,-12.068 l 0,0 c 9.26,-1.222 17.349,2.2 18.067,7.641 l 3.844,29.133 z"
   id="path28"
   style="fill:#f07e2a;stroke:#e1ddda;stroke-width:4;stroke-miterlimit:10" />
</g><g
     transform="matrix(0.49787104,0,0,0.49787104,-51.061915,-14.630636)"
     id="Layer_2">
	<path
   d="m 320.916,329.627 c 0.867,6.569 -3.756,12.6 -10.327,13.467 l -71.702,9.464 c -6.57,0.867 -12.6,-3.758 -13.467,-10.328 l -9.174,-69.515 c -0.867,-6.57 3.757,-12.6 10.327,-13.466 l 71.702,-9.463 c 6.57,-0.867 12.6,3.756 13.467,10.327 l 9.174,69.514 z"
   id="path31"
   style="fill:#ffffff" />
	<path
   d="m 479.964,308.635 c 0.867,6.57 -3.757,12.602 -10.328,13.468 l -71.701,9.463 c -6.57,0.868 -12.6,-3.757 -13.467,-10.326 l -9.174,-69.515 c -0.868,-6.57 3.756,-12.6 10.326,-13.467 l 71.702,-9.463 c 6.57,-0.867 12.601,3.756 13.467,10.327 l 9.175,69.513 z"
   id="path33"
   style="fill:#ffffff" />
</g><g
     transform="matrix(0.49787104,0,0,0.49787104,-51.061915,-14.630636)"
     id="Layer_6">
	<path
   d="M 266.738,437.14"
   id="path36"
   style="fill:#273069;stroke:#000000;stroke-width:9;stroke-miterlimit:10" />
	<g
   id="g38">
		<line
   id="line40"
   y2="426.401"
   x2="297.228"
   y1="390.26801"
   x1="440.15701" />
		<polygon
   points="438.441,383.481 441.873,397.054 297.228,426.401 "
   id="polygon42"
   style="fill:#273069" />
	</g>
</g><g
     transform="matrix(0.49787104,0,0,0.49787104,-51.061915,-14.630636)"
     id="Layer_3">
	
		<ellipse
   cx="285.60199"
   cy="272.22501"
   rx="10.662"
   ry="11.029"
   transform="matrix(0.9914,-0.1308,0.1308,0.9914,-33.1576,39.7013)"
   id="ellipse45"
   style="fill:#273069;stroke:#000000;stroke-miterlimit:10" />
	
		<ellipse
   cx="448.94901"
   cy="250.666"
   rx="10.662"
   ry="11.029"
   transform="matrix(0.9914,-0.1309,0.1309,0.9914,-28.9422,60.9065)"
   id="ellipse47"
   style="fill:#273069;stroke:#000000;stroke-miterlimit:10" />
</g></g>
</svg>